<?xml version="1.0" standalone="no"?>
<!DOCTYPE svg PUBLIC "-//W3C//DTD SVG 20010904//EN"
 "http://www.w3.org/TR/2001/REC-SVG-20010904/DTD/svg10.dtd">
<svg version="1.0" xmlns="http://www.w3.org/2000/svg"
 width="2048.000000pt" height="2048.000000pt" viewBox="0 0 2048.000000 2048.000000"
 preserveAspectRatio="xMidYMid meet">
<metadata>
Created by potrace 1.14, written by Peter Selinger 2001-2017
</metadata>
<g transform="translate(0.000000,2048.000000) scale(0.100000,-0.100000)"
fill="#000000" stroke="none">
<path d="M10677 16854 c-2 -2 -35 -5 -74 -8 -39 -3 -95 -8 -124 -11 -30 -3
-70 -7 -89 -9 -29 -3 -87 -11 -135 -19 -5 -1 -13 -6 -17 -12 -5 -6 -8 -5 -8 3
0 10 -5 10 -22 1 -13 -7 -24 -11 -26 -10 -2 3 -47 -3 -102 -13 -3 -1 -9 -4
-15 -7 -5 -4 -18 -5 -27 -4 -10 2 -18 0 -18 -5 0 -4 -13 -7 -30 -6 -16 1 -31
-1 -32 -5 -2 -4 -16 -10 -33 -13 -16 -2 -30 -5 -30 -6 0 -1 -8 -3 -17 -6 -10
-2 -26 -6 -35 -8 -10 -3 -19 -5 -20 -6 -2 -2 -6 -3 -10 -4 -56 -15 -131 -41
-140 -48 -7 -6 -13 -8 -13 -4 0 3 -15 0 -34 -8 -19 -8 -37 -12 -40 -8 -3 3 -6
0 -6 -6 0 -7 -7 -12 -16 -12 -16 0 -27 -4 -126 -49 -26 -11 -50 -21 -54 -21
-10 0 -258 -125 -334 -169 -110 -64 -175 -105 -178 -113 -2 -5 -10 -8 -17 -8
-8 0 -20 -6 -27 -13 -7 -7 -26 -22 -43 -33 -36 -22 -50 -33 -75 -56 -10 -9
-21 -14 -24 -11 -3 3 -8 -2 -12 -11 -3 -9 -11 -16 -16 -16 -6 0 -25 -12 -43
-27 -18 -16 -41 -35 -51 -43 -58 -45 -216 -182 -261 -227 -29 -29 -53 -51 -53
-49 0 2 -33 -30 -72 -71 -40 -42 -92 -95 -115 -119 -24 -24 -43 -46 -43 -49 0
-2 -15 -20 -32 -39 -18 -19 -46 -51 -63 -71 -16 -21 -36 -44 -42 -51 -7 -7
-13 -16 -13 -21 0 -4 -9 -14 -20 -21 -12 -7 -18 -17 -15 -22 3 -6 2 -10 -3
-10 -5 0 -27 -26 -48 -57 -22 -32 -42 -60 -46 -63 -8 -6 -78 -110 -78 -116 0
-2 -15 -26 -33 -52 -34 -48 -135 -221 -137 -234 0 -4 -16 -35 -35 -69 -19 -33
-35 -63 -35 -65 0 -2 -14 -34 -32 -71 -17 -38 -32 -71 -32 -75 -1 -3 -4 -10
-9 -14 -4 -4 -7 -16 -7 -26 0 -10 -4 -18 -8 -18 -5 0 -9 -7 -10 -15 -1 -8 -3
-22 -4 -30 -1 -8 -6 -15 -11 -15 -6 0 -7 -3 -4 -7 4 -3 3 -11 -2 -17 -10 -13
-41 -102 -71 -206 -12 -41 -26 -86 -30 -100 -5 -14 -12 -36 -14 -50 -3 -14 -9
-40 -15 -58 -5 -18 -10 -35 -10 -37 -1 -3 -1 -6 -2 -7 -1 -2 -2 -14 -4 -28 -2
-14 -6 -36 -10 -50 -3 -14 -8 -36 -11 -50 -2 -14 -6 -34 -9 -46 -2 -11 -7 -40
-10 -65 -3 -24 -7 -55 -10 -69 -6 -33 -18 -139 -19 -167 0 -13 -2 -23 -5 -23
-4 0 -7 -28 -7 -63 -5 -232 -10 -324 -18 -319 -5 3 -5 -1 0 -9 4 -8 9 -41 10
-74 6 -168 16 -309 29 -401 3 -22 8 -60 11 -85 10 -71 10 -72 18 -109 4 -19 9
-44 11 -55 2 -11 4 -20 5 -20 1 0 3 -16 6 -35 2 -19 6 -46 10 -60 3 -14 5 -26
5 -27 0 -2 6 -21 14 -43 8 -22 12 -40 10 -40 -3 0 0 -12 6 -27 6 -16 12 -36
14 -46 7 -34 67 -219 83 -256 8 -20 17 -45 19 -55 2 -11 7 -24 12 -30 5 -6 12
-22 16 -36 17 -55 116 -263 130 -272 5 -4 7 -8 2 -8 -8 0 43 -96 105 -198 21
-34 38 -67 38 -72 0 -6 5 -10 10 -10 6 0 10 -6 10 -13 0 -7 9 -23 20 -35 11
-12 20 -26 20 -32 0 -5 5 -10 10 -10 6 0 10 -6 10 -12 0 -13 95 -149 124 -179
9 -9 16 -21 16 -27 0 -5 4 -12 8 -14 4 -2 29 -31 55 -65 26 -34 53 -68 61 -75
7 -8 33 -38 58 -68 24 -30 71 -83 104 -117 32 -34 66 -70 75 -80 25 -29 263
-256 297 -283 17 -14 31 -29 32 -34 0 -11 -40 -46 -52 -46 -5 0 -6 -4 -3 -10
3 -5 2 -10 -3 -10 -5 0 -42 -31 -83 -70 -41 -38 -79 -69 -86 -70 -6 0 -13 -3
-15 -7 -1 -5 -28 -25 -59 -45 -52 -36 -169 -138 -157 -138 3 0 -10 -16 -29
-36 -18 -20 -41 -50 -50 -67 -9 -18 -19 -34 -22 -37 -4 -3 -14 -21 -23 -40
-29 -62 -67 -150 -68 -155 0 -3 0 -14 0 -26 0 -11 -3 -18 -7 -16 -5 3 -8 -5
-9 -16 -1 -44 -12 -116 -19 -126 -3 -6 -1 -11 5 -11 6 0 8 -5 3 -12 -9 -15
-11 -148 -2 -148 3 0 6 -18 7 -41 1 -22 5 -45 8 -51 3 -5 8 -22 11 -39 2 -16
11 -41 19 -57 7 -15 14 -32 14 -39 0 -19 68 -145 100 -185 17 -20 30 -40 30
-44 0 -9 130 -135 160 -154 12 -8 28 -21 36 -28 18 -17 174 -95 191 -95 7 0
13 -4 13 -9 0 -5 4 -7 9 -3 5 3 12 1 16 -5 4 -6 11 -8 16 -5 5 4 15 3 22 -2
15 -9 33 -14 77 -18 19 -2 35 -4 35 -6 0 -1 28 -3 62 -4 33 -2 65 -5 71 -9 5
-3 12 -3 15 0 3 3 25 7 49 9 38 3 84 10 138 20 29 6 101 32 160 58 30 13 58
24 62 23 3 0 19 10 35 24 15 14 46 38 68 54 22 17 47 38 56 48 9 10 21 18 28
18 6 0 11 4 11 9 0 4 15 24 33 43 48 53 64 74 81 105 20 37 61 83 74 83 6 0
12 4 14 9 3 9 80 76 122 106 16 11 34 26 42 33 8 7 14 11 14 8 0 -3 12 6 26
19 15 14 33 25 40 25 7 0 14 3 16 8 6 14 197 130 222 135 6 1 13 4 16 7 9 10
120 60 133 60 7 0 17 4 22 9 15 13 163 61 198 64 9 1 17 5 17 10 0 5 7 7 15 4
8 -4 16 -3 19 1 2 4 19 9 37 10 17 1 37 6 43 9 6 4 24 8 40 9 16 2 48 6 70 9
143 22 388 22 546 0 25 -4 56 -8 70 -10 14 -2 39 -7 55 -10 17 -4 39 -8 50
-10 11 -1 20 -3 20 -4 0 -2 7 -4 15 -6 8 -2 26 -6 40 -9 14 -3 35 -7 48 -10
48 -11 205 -67 262 -95 33 -16 60 -27 60 -24 0 4 8 0 18 -8 9 -8 35 -23 57
-34 62 -30 170 -96 173 -106 2 -5 8 -9 13 -9 39 0 344 -269 447 -394 19 -23
47 -57 63 -76 49 -59 108 -142 114 -162 4 -10 11 -18 16 -18 5 0 9 -6 9 -13 0
-7 9 -23 20 -35 11 -12 20 -24 20 -27 0 -3 17 -36 38 -73 20 -37 43 -85 51
-107 8 -22 17 -42 20 -45 6 -5 30 -64 36 -90 2 -8 4 -16 5 -17 2 -2 3 -6 5
-10 1 -5 5 -16 9 -25 4 -9 9 -25 11 -35 2 -10 4 -18 5 -18 2 0 4 -7 30 -110
11 -44 22 -98 25 -120 3 -22 8 -51 11 -65 8 -45 15 -104 18 -158 2 -29 6 -55
9 -58 3 -3 1 -19 -3 -35 -5 -16 -5 -31 -2 -33 11 -7 3 -225 -12 -337 -17 -123
-18 -131 -47 -249 -13 -52 -22 -98 -21 -102 1 -5 -2 -8 -6 -8 -4 0 -8 -8 -9
-18 -4 -42 -134 -339 -155 -353 -5 -3 -9 -8 -8 -10 4 -9 -24 -59 -32 -59 -5 0
-7 -4 -3 -9 3 -5 -1 -15 -8 -23 -7 -7 -22 -26 -32 -43 -94 -147 -282 -357
-434 -485 -30 -25 -62 -53 -73 -62 -10 -10 -22 -18 -26 -18 -5 0 -19 -11 -32
-25 -12 -13 -27 -22 -31 -19 -5 3 -9 1 -9 -5 0 -6 -12 -17 -27 -26 -16 -9 -41
-24 -58 -35 -16 -10 -41 -25 -55 -33 -106 -59 -142 -77 -154 -77 -8 0 -16 -4
-18 -9 -4 -12 -278 -114 -286 -107 -3 3 -10 2 -16 -3 -7 -6 -25 -13 -41 -16
-17 -3 -41 -8 -55 -11 -14 -3 -36 -7 -50 -10 -14 -3 -38 -7 -55 -10 -16 -2
-43 -7 -60 -10 -83 -15 -157 -18 -343 -18 -164 1 -206 4 -213 15 -7 11 -9 11
-9 1 0 -7 -3 -11 -7 -9 -5 3 -30 8 -58 11 -27 4 -58 9 -68 12 -11 3 -31 8 -45
10 -50 8 -67 11 -67 13 0 2 -11 5 -25 8 -14 2 -29 6 -35 7 -49 11 -205 70
-205 77 0 6 -4 8 -8 5 -10 -6 -175 73 -180 86 -2 4 -9 8 -15 8 -11 0 -123 69
-157 97 -8 7 -44 35 -80 63 -76 60 -170 147 -165 152 2 1 -3 9 -11 16 -8 7
-14 10 -14 7 0 -3 -16 12 -35 34 -19 21 -35 43 -35 49 0 5 -6 12 -14 15 -7 3
-35 34 -62 69 -27 35 -52 65 -56 66 -4 2 -8 9 -8 16 0 7 -11 25 -25 40 -14 15
-25 31 -25 36 0 5 -8 14 -17 19 -10 6 -14 11 -10 11 5 0 -8 15 -27 34 -20 18
-36 38 -36 45 0 6 -4 11 -10 11 -5 0 -10 7 -10 16 0 8 -4 13 -9 9 -6 -3 -8 4
-6 15 2 13 -1 20 -11 20 -8 0 -14 8 -14 19 0 10 -7 24 -15 31 -13 11 -13 15
-3 21 9 6 6 9 -9 9 -16 0 -21 4 -17 15 4 9 -3 23 -15 34 -23 20 -28 36 -8 26
6 -4 1 3 -13 15 -14 12 -19 19 -12 15 15 -8 15 -1 -1 33 -7 15 -12 36 -12 47
1 11 -4 26 -9 34 -9 12 -8 13 4 6 13 -7 13 -6 2 7 -7 8 -10 22 -7 31 4 8 1 35
-6 58 -7 24 -12 50 -10 57 1 6 -3 12 -9 12 -6 0 -8 5 -5 10 4 6 3 16 -2 23 -5
7 -15 31 -23 55 -7 23 -17 42 -22 42 -4 0 -8 7 -8 15 0 9 -5 21 -10 28 -6 7
-25 35 -43 62 -60 94 -112 147 -228 231 -66 49 -182 110 -223 118 -6 2 -31 8
-56 15 -25 7 -56 15 -70 18 -46 8 -280 12 -284 4 -3 -4 -19 -6 -35 -5 -17 1
-31 -2 -31 -8 0 -5 -5 -6 -10 -3 -6 4 -17 1 -25 -5 -8 -6 -18 -9 -24 -6 -5 3
-21 -1 -37 -9 -15 -7 -31 -12 -36 -9 -4 3 -8 0 -8 -6 0 -7 -6 -10 -14 -7 -8 3
-16 3 -18 -1 -2 -4 -29 -20 -60 -36 -32 -16 -58 -33 -58 -38 0 -5 -4 -7 -8 -4
-5 3 -23 -8 -41 -24 -18 -17 -35 -30 -37 -30 -3 0 -19 -12 -34 -27 -16 -16
-35 -33 -42 -39 -19 -16 -68 -73 -68 -79 0 -3 -10 -16 -22 -31 -49 -55 -123
-217 -144 -314 -4 -19 -10 -42 -12 -50 -7 -24 -8 -340 -1 -340 9 0 6 -34 -4
-41 -5 -3 -2 -12 5 -20 8 -8 15 -26 15 -41 1 -16 1 -46 2 -69 1 -24 5 -38 11
-34 6 3 10 -4 10 -18 0 -14 7 -42 16 -63 29 -71 55 -128 80 -176 13 -27 21
-48 17 -48 -5 0 -3 -4 3 -8 6 -4 30 -45 54 -92 23 -47 47 -88 54 -92 6 -4 7
-8 3 -8 -5 0 1 -13 12 -28 11 -16 21 -35 23 -42 2 -8 11 -23 21 -34 9 -11 17
-26 17 -33 0 -7 4 -13 9 -13 5 0 12 -9 16 -19 3 -11 25 -48 49 -83 23 -36 45
-71 49 -79 7 -14 89 -134 107 -156 5 -7 10 -16 10 -22 0 -5 4 -11 8 -13 5 -2
23 -25 42 -53 18 -27 36 -52 39 -55 3 -3 26 -32 51 -65 52 -69 71 -93 86 -109
5 -6 39 -45 74 -86 63 -73 304 -320 312 -320 3 0 34 -27 69 -60 35 -33 67 -60
71 -60 5 0 16 -8 26 -18 10 -9 33 -28 51 -42 18 -14 38 -30 44 -35 12 -10 46
-34 93 -65 85 -56 120 -81 129 -88 6 -4 35 -21 65 -38 30 -16 57 -32 60 -36
11 -14 304 -157 312 -152 4 3 8 1 8 -4 0 -5 19 -16 43 -25 121 -42 173 -63
178 -70 3 -5 8 -8 10 -7 2 1 24 -4 49 -11 25 -7 48 -12 53 -11 4 1 7 -3 7 -8
0 -6 6 -10 13 -9 6 1 19 0 27 -3 8 -3 60 -18 115 -33 55 -14 107 -29 115 -32
8 -3 33 -7 55 -9 22 -2 47 -7 55 -10 8 -4 27 -8 43 -10 15 -2 42 -6 60 -8 17
-3 32 -6 32 -7 0 -1 14 -3 30 -4 17 -2 30 -4 30 -5 0 -1 9 -3 20 -4 11 -2 45
-7 75 -11 30 -5 72 -9 92 -9 21 -1 38 -4 38 -7 0 -8 33 -5 48 5 6 4 12 3 12
-2 0 -12 72 -15 340 -15 274 0 341 3 333 16 -3 6 2 5 13 -1 11 -6 27 -7 41 -1
15 5 23 5 23 -2 0 -6 6 -7 13 -2 6 4 21 8 32 9 11 1 40 4 65 7 72 10 154 20
168 20 6 0 12 3 12 7 0 3 10 6 23 7 40 1 92 9 103 15 5 4 28 9 49 12 60 8 210
47 213 56 2 4 12 6 22 3 11 -3 20 -1 20 3 0 5 10 10 23 11 12 0 36 7 52 14 17
6 35 13 40 14 6 1 13 3 18 5 4 1 12 4 17 5 6 1 12 4 15 5 3 1 8 3 13 4 37 8
219 85 362 154 52 25 101 46 107 48 7 1 24 12 39 23 15 12 33 21 40 21 8 0 14
4 14 8 0 4 12 13 28 19 15 7 44 22 64 35 66 40 193 122 203 130 6 5 50 38 100
75 147 108 260 202 373 311 36 34 89 85 119 113 29 27 53 52 53 54 0 2 29 33
65 69 36 37 62 66 58 66 -3 0 3 8 14 18 11 9 61 69 112 132 50 63 96 120 101
127 6 7 10 16 10 22 0 5 4 11 9 13 12 4 162 228 153 228 -4 0 -2 4 4 8 6 4 28
39 49 77 21 39 42 72 45 75 7 6 22 38 26 57 1 7 9 20 18 29 9 8 14 20 11 25
-4 5 -2 9 3 9 8 0 20 28 20 47 0 3 4 9 9 12 6 3 34 65 64 136 29 72 57 132 61
133 5 2 6 8 3 12 -3 5 -1 17 4 27 6 10 29 79 52 153 22 74 43 142 46 150 3 8
7 24 9 35 5 30 12 60 14 60 2 0 5 16 14 60 3 17 8 41 12 55 3 14 7 35 9 47 2
12 6 35 10 52 8 39 21 121 30 206 3 28 8 66 10 85 25 212 25 622 0 865 -5 47
-15 129 -21 165 -2 14 -6 48 -10 75 -3 28 -10 55 -15 61 -5 6 -7 13 -4 16 3 2
0 27 -5 54 -6 27 -12 58 -14 69 -2 11 -4 20 -5 20 -2 0 -4 7 -6 15 -2 8 -8 35
-13 59 -6 25 -9 49 -6 53 3 4 0 8 -5 8 -6 0 -11 9 -11 20 0 10 -4 29 -9 42 -5
13 -22 64 -37 113 -14 50 -31 96 -36 103 -6 6 -8 12 -4 12 4 0 0 13 -8 29 -9
16 -12 31 -9 35 4 3 2 6 -4 6 -5 0 -10 6 -10 13 -1 21 -8 42 -16 48 -5 3 -10
12 -11 20 -7 35 -136 302 -148 307 -4 2 -8 9 -8 17 0 12 -108 197 -130 222 -5
7 -10 17 -10 23 0 5 -4 10 -8 10 -5 0 -14 11 -20 25 -7 14 -16 31 -22 38 -43
52 -90 118 -90 126 0 5 -3 11 -8 13 -4 2 -36 39 -72 83 -35 44 -79 95 -97 113
-19 19 -30 38 -27 45 4 7 4 9 -1 5 -4 -4 -37 25 -74 64 -36 39 -79 83 -95 97
-15 14 -54 51 -85 81 -32 30 -79 73 -106 95 -26 22 -64 54 -84 72 l-36 32 30
25 c17 14 40 34 53 46 12 11 22 19 22 16 0 -5 52 40 139 122 31 28 59 52 63
52 5 0 8 7 8 16 0 8 5 12 10 9 6 -3 10 -2 10 3 0 5 26 36 58 68 31 33 73 79
92 103 19 23 43 52 53 63 9 12 17 26 17 31 0 6 3 7 6 4 4 -3 25 22 48 56 22
34 49 70 60 80 10 9 15 17 10 17 -5 0 -4 4 2 8 11 8 62 83 83 125 8 15 18 27
23 27 4 0 8 6 8 14 0 7 7 19 15 26 8 7 12 16 9 21 -3 5 0 9 6 9 6 0 8 5 5 10
-3 6 -2 10 4 10 5 0 13 10 17 23 4 12 10 24 13 27 4 3 20 31 36 63 15 31 31
57 35 57 4 0 7 6 7 13 0 16 45 110 56 118 5 3 8 8 6 10 -1 2 7 24 18 49 11 25
40 95 64 155 24 61 47 111 51 113 4 2 4 10 1 17 -3 8 2 22 11 31 9 9 14 26 12
40 -3 13 -1 22 3 20 5 -4 71 189 77 224 0 3 7 25 14 50 7 25 14 48 16 53 1 4
2 8 4 10 1 1 3 11 5 22 1 11 6 34 10 50 4 17 7 38 8 48 1 9 5 17 9 17 4 0 6 8
6 18 0 9 2 30 5 46 4 16 11 53 17 81 6 28 13 67 15 86 2 19 6 45 9 59 3 14 7
50 10 80 3 30 8 71 10 90 14 107 19 219 18 425 0 216 -3 281 -19 415 -3 30 -7
71 -8 90 -2 19 -6 53 -10 75 -4 22 -9 49 -10 60 -2 11 -4 22 -5 25 -1 3 -2 9
-1 14 1 5 -3 32 -10 60 -7 28 -14 60 -15 71 -1 11 -3 20 -4 20 -4 0 -29 121
-32 153 -1 6 -6 12 -11 12 -5 0 -7 9 -4 20 3 11 1 20 -4 20 -5 0 -8 3 -7 8 2
12 -16 78 -38 137 -4 11 -9 27 -11 35 -6 22 -9 33 -18 55 -44 110 -52 134 -47
139 3 3 -1 6 -8 6 -7 0 -11 3 -8 6 6 5 -29 86 -95 224 -17 36 -32 69 -32 73 0
4 -5 11 -11 15 -6 4 -15 18 -19 32 -4 14 -10 27 -14 30 -3 3 -19 30 -35 60
-16 30 -68 113 -115 184 -47 71 -92 140 -99 153 -8 14 -20 27 -28 30 -8 3 -14
10 -14 17 0 6 -18 31 -40 55 -22 24 -40 46 -40 50 0 6 -31 44 -86 103 -19 20
-34 39 -34 42 0 2 -31 36 -70 76 -38 40 -70 73 -70 76 0 2 -21 23 -47 48 -27
24 -73 68 -104 98 -60 56 -167 151 -203 180 -40 32 -185 143 -228 175 -54 39
-249 162 -308 194 -25 13 -47 27 -50 30 -3 3 -34 20 -70 38 -36 18 -72 37 -80
42 -20 12 -120 55 -147 64 -13 3 -23 11 -23 17 0 6 -3 8 -7 5 -3 -4 -17 0 -30
8 -13 9 -23 13 -23 9 0 -3 -12 1 -26 11 -18 11 -24 12 -18 4 6 -11 5 -12 -7
-3 -17 13 -138 61 -171 68 -13 3 -43 13 -68 22 -25 9 -56 18 -69 20 -14 3 -29
8 -35 12 -6 3 -22 8 -36 10 -14 1 -32 5 -40 9 -8 3 -26 8 -40 10 -14 2 -32 7
-40 10 -8 4 -28 8 -45 9 -16 1 -42 6 -56 12 -14 6 -43 11 -65 13 -21 1 -43 5
-49 8 -5 3 -19 6 -30 7 -11 0 -39 4 -62 8 -23 4 -59 9 -80 11 -45 4 -128 13
-198 21 -49 6 -553 13 -558 8z m413 -1708 c79 -7 171 -17 193 -22 12 -3 33 -7
47 -10 117 -24 159 -34 183 -43 15 -6 27 -8 27 -5 0 3 6 2 13 -3 6 -4 19 -8
27 -10 8 -1 16 -7 18 -13 2 -5 8 -8 13 -5 4 3 21 -1 37 -9 16 -8 32 -12 36 -9
3 4 6 1 6 -5 0 -6 7 -9 15 -6 8 4 15 1 15 -7 0 -7 3 -10 6 -6 8 8 244 -112
244 -124 0 -6 4 -8 8 -5 5 3 22 -4 38 -14 16 -11 38 -25 49 -32 10 -7 24 -17
31 -23 6 -5 22 -17 34 -25 40 -27 95 -71 102 -83 4 -7 8 -8 8 -3 0 5 17 -7 38
-27 102 -96 137 -127 146 -127 5 0 7 -3 3 -6 -3 -3 13 -25 36 -48 23 -23 62
-66 87 -95 25 -30 51 -59 58 -67 6 -7 12 -15 12 -18 0 -4 20 -32 45 -64 25
-31 45 -61 45 -65 0 -5 11 -23 24 -40 33 -44 128 -229 155 -302 13 -33 27 -69
31 -80 13 -31 35 -99 35 -110 0 -5 3 -14 7 -20 8 -13 38 -150 44 -199 3 -22 7
-43 9 -46 5 -8 18 -144 19 -187 0 -18 4 -33 8 -33 5 0 4 -9 -2 -19 -5 -11 -7
-22 -3 -24 6 -4 9 -202 3 -202 -1 0 -3 -25 -5 -55 -5 -91 -13 -169 -18 -177
-3 -5 -7 -30 -11 -58 -7 -54 -13 -79 -45 -195 -12 -41 -22 -81 -23 -87 -1 -7
-5 -13 -9 -13 -5 0 -6 -7 -3 -15 4 -8 1 -15 -7 -15 -7 0 -10 -3 -7 -6 10 -9
-78 -214 -113 -265 -10 -14 -19 -32 -21 -40 -2 -8 -6 -16 -9 -19 -3 -3 -23
-34 -45 -70 -21 -36 -41 -67 -45 -70 -3 -3 -25 -32 -50 -65 -24 -33 -48 -65
-54 -71 -5 -6 -31 -35 -57 -65 -92 -108 -190 -200 -343 -322 -96 -77 -405
-254 -419 -240 -3 4 -6 1 -6 -5 0 -7 -4 -12 -9 -12 -5 0 -20 -4 -33 -9 -13 -5
-26 -9 -30 -10 -4 -1 -23 -8 -42 -16 -18 -8 -36 -11 -40 -8 -3 4 -6 2 -6 -4 0
-6 -17 -14 -37 -18 -21 -5 -42 -10 -48 -12 -5 -1 -39 -10 -75 -19 -36 -9 -72
-18 -80 -21 -8 -3 -37 -7 -65 -10 -27 -2 -52 -7 -55 -11 -3 -4 -30 -8 -60 -9
-115 -4 -165 -9 -177 -16 -6 -4 -14 -3 -18 2 -5 9 -36 8 -53 -3 -4 -2 -14 -1
-22 4 -8 5 -21 5 -31 0 -9 -5 -19 -6 -23 -2 -4 3 -28 7 -54 8 -155 4 -341 34
-487 78 -5 2 -25 7 -43 11 -18 4 -35 11 -38 16 -2 4 -11 6 -19 2 -8 -3 -15 0
-15 7 0 6 -4 8 -10 5 -5 -3 -10 -2 -10 4 0 6 -6 8 -14 5 -8 -3 -17 0 -21 5 -3
6 -11 9 -16 6 -5 -4 -9 -1 -9 4 0 6 -3 10 -7 9 -16 -3 -241 105 -253 122 -3 3
-20 13 -37 21 -18 8 -33 17 -33 21 0 5 -7 8 -15 8 -8 0 -15 5 -15 10 0 6 -4
10 -10 10 -5 0 -31 16 -57 36 -27 20 -61 45 -77 57 -16 12 -42 34 -58 49 -15
15 -28 25 -28 22 0 -3 -27 21 -60 54 -32 33 -62 57 -65 54 -3 -3 -5 -1 -5 5 0
6 -21 33 -47 60 -84 87 -113 121 -113 131 0 6 -3 12 -8 14 -4 2 -23 23 -42 48
-19 25 -39 48 -45 52 -6 5 -6 8 0 8 6 0 6 3 -1 8 -6 4 -26 32 -45 63 -19 30
-40 64 -46 75 -7 10 -31 57 -54 104 -23 47 -48 97 -56 113 -8 15 -11 27 -6 27
4 0 3 4 -2 8 -11 7 -71 175 -80 220 -2 13 -7 33 -11 45 -4 12 -8 31 -10 42 -2
11 -6 32 -9 48 -3 15 -7 37 -9 50 -3 12 -7 33 -10 46 -13 59 -19 170 -19 346
0 195 8 306 25 339 7 13 7 16 -1 12 -7 -4 -9 -1 -5 8 5 14 28 110 40 170 3 16
16 60 29 97 12 37 20 70 17 73 -3 4 0 6 7 6 8 0 11 7 7 15 -3 9 1 18 9 21 7 3
11 12 9 19 -3 7 0 16 5 20 6 3 9 11 6 16 -4 5 -1 9 4 9 6 0 10 3 9 8 -1 4 4
20 10 35 7 16 12 33 12 38 0 5 4 9 10 9 5 0 15 18 21 40 7 22 15 40 19 40 8 0
34 52 32 63 -1 4 2 7 8 7 5 0 10 7 10 15 0 8 5 15 10 15 6 0 10 7 10 15 0 8 5
15 10 15 6 0 10 6 10 13 0 7 8 22 18 33 10 10 28 36 41 57 12 20 26 37 31 37
5 0 11 8 15 19 3 10 23 37 45 60 22 23 40 45 40 49 0 13 311 312 324 312 3 0
15 8 25 18 30 27 42 35 99 72 28 19 52 38 52 42 0 5 9 8 19 8 11 0 21 4 23 8
4 11 108 71 178 102 30 14 57 27 60 30 6 8 162 65 175 65 6 0 12 3 15 6 5 6
196 58 235 64 11 2 31 6 45 9 37 8 102 15 205 22 50 3 91 7 92 8 3 2 205 -4
253 -8z"/>
<path d="M10817 13594 c-1 -2 -16 -5 -32 -8 -17 -2 -30 -5 -30 -6 0 -1 -8 -3
-18 -5 -10 -2 -26 -7 -35 -11 -9 -4 -19 -8 -22 -9 -39 -9 -137 -74 -191 -125
-62 -60 -124 -167 -149 -261 -24 -89 -17 -319 10 -319 5 0 6 -9 3 -20 -3 -11
-1 -20 5 -20 5 0 13 -12 16 -26 6 -24 51 -102 65 -114 3 -3 23 -24 44 -48 20
-23 37 -39 37 -36 0 3 8 -3 18 -15 16 -19 172 -107 172 -96 0 2 11 0 25 -5 38
-14 113 -23 180 -22 106 3 115 4 115 11 0 4 9 7 19 8 29 2 122 43 158 70 17
12 34 23 38 23 11 0 108 105 133 145 24 36 71 128 72 140 0 3 0 6 1 8 0 1 2
11 4 22 2 11 7 36 11 55 8 42 8 143 0 185 -15 83 -14 79 -62 179 -38 79 -140
181 -232 234 -40 23 -70 36 -66 30 5 -7 3 -8 -7 -2 -24 15 -75 31 -97 29 -12
-1 -19 1 -17 5 4 6 -162 10 -168 4z"/>
</g>
</svg>
